<?xml version="1.0" encoding="UTF-8" standalone="no"?><!DOCTYPE svg PUBLIC "-//W3C//DTD SVG 1.1//EN" "http://www.w3.org/Graphics/SVG/1.1/DTD/svg11.dtd"><!-- Generated by graphviz version 2.40.1 (20161225.0304)
 --><!-- Title: %0 Pages: 1 --><svg xmlns="http://www.w3.org/2000/svg" xmlns:xlink="http://www.w3.org/1999/xlink" width="1067pt" height="328pt" viewBox="0.00 0.00 1067.00 328.00">
<g id="graph0" class="graph" transform="scale(1 1) rotate(0) translate(4 324)">
<title>%0</title>
<polygon fill="#ffffff" stroke="transparent" points="-4,4 -4,-324 1063,-324 1063,4 -4,4"/>
<!-- n0 -->
<g id="node1" class="node">
<title>n0</title>
<polygon fill="#ffffff" stroke="transparent" points="8,-108 8,-316 280,-316 280,-108 8,-108"/>
<polygon fill="#909090" stroke="transparent" points="8,-290 8,-316 280,-316 280,-290 8,-290"/>
<polygon fill="none" stroke="#000000" points="8,-290 8,-316 280,-316 280,-290 8,-290"/>
<text text-anchor="start" x="98.4881" y="-298.4" font-family="Helvetica,sans-Serif" font-size="14.00" fill="#000000">.eh_frame_hdr</text>
<polygon fill="none" stroke="#000000" points="8,-264 8,-290 144,-290 144,-264 8,-264"/>
<text text-anchor="start" x="13" y="-272.4" font-family="Helvetica,sans-Serif" font-size="14.00" fill="#000000">uint8_t</text>
<polygon fill="none" stroke="#000000" points="144,-264 144,-290 280,-290 280,-264 144,-264"/>
<text text-anchor="start" x="149" y="-272.4" font-family="Helvetica,sans-Serif" font-size="14.00" fill="#000000">Version</text>
<polygon fill="none" stroke="#000000" points="8,-238 8,-264 144,-264 144,-238 8,-238"/>
<text text-anchor="start" x="13" y="-246.4" font-family="Helvetica,sans-Serif" font-size="14.00" fill="#000000">uint8_t</text>
<polygon fill="none" stroke="#000000" points="144,-238 144,-264 280,-264 280,-238 144,-238"/>
<text text-anchor="start" x="149" y="-246.4" font-family="Helvetica,sans-Serif" font-size="14.00" fill="#000000">eh frame ptr enc</text>
<polygon fill="none" stroke="#000000" points="8,-212 8,-238 144,-238 144,-212 8,-212"/>
<text text-anchor="start" x="13" y="-220.4" font-family="Helvetica,sans-Serif" font-size="14.00" fill="#000000">uint8_t</text>
<polygon fill="none" stroke="#000000" points="144,-212 144,-238 280,-238 280,-212 144,-212"/>
<text text-anchor="start" x="149" y="-220.4" font-family="Helvetica,sans-Serif" font-size="14.00" fill="#000000">FDE count enc</text>
<polygon fill="none" stroke="#000000" points="8,-186 8,-212 144,-212 144,-186 8,-186"/>
<text text-anchor="start" x="13" y="-194.4" font-family="Helvetica,sans-Serif" font-size="14.00" fill="#000000">uint8_t</text>
<polygon fill="none" stroke="#000000" points="144,-186 144,-212 280,-212 280,-186 144,-186"/>
<text text-anchor="start" x="149" y="-194.4" font-family="Helvetica,sans-Serif" font-size="14.00" fill="#000000">Table enc</text>
<polygon fill="none" stroke="#000000" points="8,-160 8,-186 144,-186 144,-160 8,-160"/>
<text text-anchor="start" x="13" y="-168.4" font-family="Helvetica,sans-Serif" font-size="14.00" fill="#000000">enc</text>
<polygon fill="none" stroke="#000000" points="144,-160 144,-186 280,-186 280,-160 144,-160"/>
<text text-anchor="start" x="149" y="-168.4" font-family="Helvetica,sans-Serif" font-size="14.00" fill="#000000">eh frame ptr</text>
<polygon fill="none" stroke="#000000" points="8,-134 8,-160 144,-160 144,-134 8,-134"/>
<text text-anchor="start" x="13" y="-142.4" font-family="Helvetica,sans-Serif" font-size="14.00" fill="#000000">enc</text>
<polygon fill="none" stroke="#000000" points="144,-134 144,-160 280,-160 280,-134 144,-134"/>
<text text-anchor="start" x="149" y="-142.4" font-family="Helvetica,sans-Serif" font-size="14.00" fill="#000000">FDE count</text>
<polygon fill="none" stroke="#000000" points="8,-108 8,-134 144,-134 144,-108 8,-108"/>
<text text-anchor="start" x="12.5849" y="-116.4" font-family="Helvetica,sans-Serif" font-size="14.00" fill="#000000">bst_entry[fde_count]</text>
<polygon fill="none" stroke="#000000" points="144,-108 144,-134 280,-134 280,-108 144,-108"/>
<text text-anchor="start" x="148.5989" y="-116.4" font-family="Helvetica,sans-Serif" font-size="14.00" fill="#000000">Binary Search Table</text>
</g>
<!-- n1 -->
<g id="node2" class="node">
<title>n1</title>
<polygon fill="#ffffff" stroke="transparent" points="332,-238 332,-316 463,-316 463,-238 332,-238"/>
<polygon fill="#909090" stroke="transparent" points="332.5,-290 332.5,-316 463.5,-316 463.5,-290 332.5,-290"/>
<polygon fill="none" stroke="#000000" points="332.5,-290 332.5,-316 463.5,-316 463.5,-290 332.5,-290"/>
<text text-anchor="start" x="369.2139" y="-298.4" font-family="Helvetica,sans-Serif" font-size="14.00" fill="#000000">bst_entry</text>
<polygon fill="none" stroke="#000000" points="332.5,-264 332.5,-290 364.5,-290 364.5,-264 332.5,-264"/>
<text text-anchor="start" x="337.2174" y="-272.4" font-family="Helvetica,sans-Serif" font-size="14.00" fill="#000000">enc</text>
<polygon fill="none" stroke="#000000" points="364.5,-264 364.5,-290 463.5,-290 463.5,-264 364.5,-264"/>
<text text-anchor="start" x="369.2665" y="-272.4" font-family="Helvetica,sans-Serif" font-size="14.00" fill="#000000">Initial Location</text>
<polygon fill="none" stroke="#000000" points="332.5,-238 332.5,-264 364.5,-264 364.5,-238 332.5,-238"/>
<text text-anchor="start" x="337.2174" y="-246.4" font-family="Helvetica,sans-Serif" font-size="14.00" fill="#000000">enc</text>
<polygon fill="none" stroke="#000000" points="364.5,-238 364.5,-264 463.5,-264 463.5,-238 364.5,-238"/>
<text text-anchor="start" x="369.5" y="-246.4" font-family="Helvetica,sans-Serif" font-size="14.00" fill="#000000">FDE Address</text>
</g>
<!-- n0&#45;&gt;n1 -->
<!-- n0&#45;&gt;n1 -->
<g id="edge4" class="edge">
<title>n0:7-&gt;n1:w</title>
<path fill="none" stroke="#000000" stroke-dasharray="5,2" d="M280,-121C360.4052,-121 258.3198,-287.0157 322.3294,-301.9312"/>
<polygon fill="#000000" stroke="#000000" points="322.1889,-305.4356 332.5,-303 322.9206,-298.4739 322.1889,-305.4356"/>
</g>
<!-- n2 -->
<g id="node3" class="node">
<title>n2</title>
<polygon fill="#ffffff" stroke="transparent" points="515,-82 515,-316 750,-316 750,-82 515,-82"/>
<polygon fill="#909090" stroke="transparent" points="515.5,-290 515.5,-316 750.5,-316 750.5,-290 515.5,-290"/>
<polygon fill="none" stroke="#000000" points="515.5,-290 515.5,-316 750.5,-316 750.5,-290 515.5,-290"/>
<text text-anchor="start" x="619.0021" y="-298.4" font-family="Helvetica,sans-Serif" font-size="14.00" fill="#000000">FDE</text>
<polygon fill="none" stroke="#000000" points="515.5,-264 515.5,-290 574.5,-290 574.5,-264 515.5,-264"/>
<text text-anchor="start" x="520.0996" y="-272.4" font-family="Helvetica,sans-Serif" font-size="14.00" fill="#000000">uint32_t</text>
<polygon fill="none" stroke="#000000" points="574.5,-264 574.5,-290 750.5,-290 750.5,-264 574.5,-264"/>
<text text-anchor="start" x="579.5" y="-272.4" font-family="Helvetica,sans-Serif" font-size="14.00" fill="#000000">Length</text>
<polygon fill="#d8d8d8" stroke="transparent" points="515.5,-238 515.5,-264 574.5,-264 574.5,-238 515.5,-238"/>
<polygon fill="none" stroke="#000000" points="515.5,-238 515.5,-264 574.5,-264 574.5,-238 515.5,-238"/>
<text text-anchor="start" x="520.0996" y="-246.4" font-family="Helvetica,sans-Serif" font-size="14.00" fill="#000000">uint64_t</text>
<polygon fill="#d8d8d8" stroke="transparent" points="574.5,-238 574.5,-264 750.5,-264 750.5,-238 574.5,-238"/>
<polygon fill="none" stroke="#000000" points="574.5,-238 574.5,-264 750.5,-264 750.5,-238 574.5,-238"/>
<text text-anchor="start" x="579.5" y="-246.4" font-family="Helvetica,sans-Serif" font-size="14.00" fill="#000000">Extended Length</text>
<polygon fill="none" stroke="#000000" points="515.5,-212 515.5,-238 574.5,-238 574.5,-212 515.5,-212"/>
<text text-anchor="start" x="520.0996" y="-220.4" font-family="Helvetica,sans-Serif" font-size="14.00" fill="#000000">uint32_t</text>
<polygon fill="none" stroke="#000000" points="574.5,-212 574.5,-238 750.5,-238 750.5,-212 574.5,-212"/>
<text text-anchor="start" x="579.5" y="-220.4" font-family="Helvetica,sans-Serif" font-size="14.00" fill="#000000">CIE ptr (Offset)</text>
<polygon fill="none" stroke="#000000" points="515.5,-186 515.5,-212 574.5,-212 574.5,-186 515.5,-186"/>
<text text-anchor="start" x="520.5" y="-194.4" font-family="Helvetica,sans-Serif" font-size="14.00" fill="#000000">enc</text>
<polygon fill="none" stroke="#000000" points="574.5,-186 574.5,-212 750.5,-212 750.5,-186 574.5,-186"/>
<text text-anchor="start" x="579.5" y="-194.4" font-family="Helvetica,sans-Serif" font-size="14.00" fill="#000000">IP begin</text>
<polygon fill="none" stroke="#000000" points="515.5,-160 515.5,-186 574.5,-186 574.5,-160 515.5,-160"/>
<text text-anchor="start" x="520.5" y="-168.4" font-family="Helvetica,sans-Serif" font-size="14.00" fill="#000000">enc</text>
<polygon fill="none" stroke="#000000" points="574.5,-160 574.5,-186 750.5,-186 750.5,-160 574.5,-160"/>
<text text-anchor="start" x="579.5" y="-168.4" font-family="Helvetica,sans-Serif" font-size="14.00" fill="#000000">IP range</text>
<polygon fill="#d8d8d8" stroke="transparent" points="515.5,-134 515.5,-160 574.5,-160 574.5,-134 515.5,-134"/>
<polygon fill="none" stroke="#000000" points="515.5,-134 515.5,-160 574.5,-160 574.5,-134 515.5,-134"/>
<text text-anchor="start" x="520.0989" y="-142.4" font-family="Helvetica,sans-Serif" font-size="14.00" fill="#000000">uleb128</text>
<polygon fill="#d8d8d8" stroke="transparent" points="574.5,-134 574.5,-160 750.5,-160 750.5,-134 574.5,-134"/>
<polygon fill="none" stroke="#000000" points="574.5,-134 574.5,-160 750.5,-160 750.5,-134 574.5,-134"/>
<text text-anchor="start" x="579.2448" y="-142.4" font-family="Helvetica,sans-Serif" font-size="14.00" fill="#000000">Augmentation Data Length</text>
<polygon fill="#d8d8d8" stroke="transparent" points="515.5,-108 515.5,-134 574.5,-134 574.5,-108 515.5,-108"/>
<polygon fill="none" stroke="#000000" points="515.5,-108 515.5,-134 574.5,-134 574.5,-108 515.5,-108"/>
<text text-anchor="start" x="520.5" y="-116.4" font-family="Helvetica,sans-Serif" font-size="14.00" fill="#000000">enc</text>
<polygon fill="#d8d8d8" stroke="transparent" points="574.5,-108 574.5,-134 750.5,-134 750.5,-108 574.5,-108"/>
<polygon fill="none" stroke="#000000" points="574.5,-108 574.5,-134 750.5,-134 750.5,-108 574.5,-108"/>
<text text-anchor="start" x="579.5" y="-116.4" font-family="Helvetica,sans-Serif" font-size="14.00" fill="#000000">Augmentation Data</text>
<polygon fill="none" stroke="#000000" points="515.5,-82 515.5,-108 574.5,-108 574.5,-82 515.5,-82"/>
<text text-anchor="start" x="520.5" y="-90.4" font-family="Helvetica,sans-Serif" font-size="14.00" fill="#000000">char[]</text>
<polygon fill="none" stroke="#000000" points="574.5,-82 574.5,-108 750.5,-108 750.5,-82 574.5,-82"/>
<text text-anchor="start" x="579.5" y="-90.4" font-family="Helvetica,sans-Serif" font-size="14.00" fill="#000000">Call Frame Instructions</text>
</g>
<!-- n1&#45;&gt;n2 -->
<!-- n1&#45;&gt;n2 -->
<g id="edge5" class="edge">
<title>n1:e-&gt;n2:w</title>
<path fill="none" stroke="#000000" d="M463.5,-251C492.2262,-251 485.3782,-291.1688 505.4888,-300.8971"/>
<polygon fill="#000000" stroke="#000000" points="504.9941,-304.3695 515.5,-303 506.4331,-297.519 504.9941,-304.3695"/>
</g>
<!-- n3 -->
<g id="node4" class="node">
<title>n3</title>
<polygon fill="#ffffff" stroke="transparent" points="802,-4 802,-316 1051,-316 1051,-4 802,-4"/>
<polygon fill="#909090" stroke="transparent" points="802.5,-290 802.5,-316 1051.5,-316 1051.5,-290 802.5,-290"/>
<polygon fill="none" stroke="#000000" points="802.5,-290 802.5,-316 1051.5,-316 1051.5,-290 802.5,-290"/>
<text text-anchor="start" x="915.3331" y="-298.4" font-family="Helvetica,sans-Serif" font-size="14.00" fill="#000000">CIE</text>
<polygon fill="none" stroke="#000000" points="802.5,-264 802.5,-290 861.5,-290 861.5,-264 802.5,-264"/>
<text text-anchor="start" x="807.0996" y="-272.4" font-family="Helvetica,sans-Serif" font-size="14.00" fill="#000000">uint32_t</text>
<polygon fill="none" stroke="#000000" points="861.5,-264 861.5,-290 1051.5,-290 1051.5,-264 861.5,-264"/>
<text text-anchor="start" x="866.5" y="-272.4" font-family="Helvetica,sans-Serif" font-size="14.00" fill="#000000">Length</text>
<polygon fill="#d8d8d8" stroke="transparent" points="802.5,-238 802.5,-264 861.5,-264 861.5,-238 802.5,-238"/>
<polygon fill="none" stroke="#000000" points="802.5,-238 802.5,-264 861.5,-264 861.5,-238 802.5,-238"/>
<text text-anchor="start" x="807.0996" y="-246.4" font-family="Helvetica,sans-Serif" font-size="14.00" fill="#000000">uint64_t</text>
<polygon fill="#d8d8d8" stroke="transparent" points="861.5,-238 861.5,-264 1051.5,-264 1051.5,-238 861.5,-238"/>
<polygon fill="none" stroke="#000000" points="861.5,-238 861.5,-264 1051.5,-264 1051.5,-238 861.5,-238"/>
<text text-anchor="start" x="866.5" y="-246.4" font-family="Helvetica,sans-Serif" font-size="14.00" fill="#000000">Extended Length</text>
<polygon fill="none" stroke="#000000" points="802.5,-212 802.5,-238 861.5,-238 861.5,-212 802.5,-212"/>
<text text-anchor="start" x="807.0996" y="-220.4" font-family="Helvetica,sans-Serif" font-size="14.00" fill="#000000">uint32_t</text>
<polygon fill="none" stroke="#000000" points="861.5,-212 861.5,-238 1051.5,-238 1051.5,-212 861.5,-212"/>
<text text-anchor="start" x="866.5" y="-220.4" font-family="Helvetica,sans-Serif" font-size="14.00" fill="#000000">CIE ID</text>
<polygon fill="none" stroke="#000000" points="802.5,-186 802.5,-212 861.5,-212 861.5,-186 802.5,-186"/>
<text text-anchor="start" x="807.5" y="-194.4" font-family="Helvetica,sans-Serif" font-size="14.00" fill="#000000">uint8_t</text>
<polygon fill="none" stroke="#000000" points="861.5,-186 861.5,-212 1051.5,-212 1051.5,-186 861.5,-186"/>
<text text-anchor="start" x="866.5" y="-194.4" font-family="Helvetica,sans-Serif" font-size="14.00" fill="#000000">Version</text>
<polygon fill="none" stroke="#000000" points="802.5,-160 802.5,-186 861.5,-186 861.5,-160 802.5,-160"/>
<text text-anchor="start" x="807.5" y="-168.4" font-family="Helvetica,sans-Serif" font-size="14.00" fill="#000000">char[]</text>
<polygon fill="none" stroke="#000000" points="861.5,-160 861.5,-186 1051.5,-186 1051.5,-160 861.5,-160"/>
<text text-anchor="start" x="866.5" y="-168.4" font-family="Helvetica,sans-Serif" font-size="14.00" fill="#000000">Augmentation String</text>
<polygon fill="none" stroke="#000000" points="802.5,-134 802.5,-160 861.5,-160 861.5,-134 802.5,-134"/>
<text text-anchor="start" x="807.0989" y="-142.4" font-family="Helvetica,sans-Serif" font-size="14.00" fill="#000000">uleb128</text>
<polygon fill="none" stroke="#000000" points="861.5,-134 861.5,-160 1051.5,-160 1051.5,-134 861.5,-134"/>
<text text-anchor="start" x="866.5" y="-142.4" font-family="Helvetica,sans-Serif" font-size="14.00" fill="#000000">Code Alignment Factor</text>
<polygon fill="none" stroke="#000000" points="802.5,-108 802.5,-134 861.5,-134 861.5,-108 802.5,-108"/>
<text text-anchor="start" x="807.4902" y="-116.4" font-family="Helvetica,sans-Serif" font-size="14.00" fill="#000000">sleb128</text>
<polygon fill="none" stroke="#000000" points="861.5,-108 861.5,-134 1051.5,-134 1051.5,-108 861.5,-108"/>
<text text-anchor="start" x="866.5" y="-116.4" font-family="Helvetica,sans-Serif" font-size="14.00" fill="#000000">Data Alignment Factor</text>
<polygon fill="none" stroke="#000000" points="802.5,-82 802.5,-108 861.5,-108 861.5,-82 802.5,-82"/>
<text text-anchor="start" x="807.5" y="-90.4" font-family="Helvetica,sans-Serif" font-size="14.00" fill="#000000">enc</text>
<polygon fill="none" stroke="#000000" points="861.5,-82 861.5,-108 1051.5,-108 1051.5,-82 861.5,-82"/>
<text text-anchor="start" x="866.5" y="-90.4" font-family="Helvetica,sans-Serif" font-size="14.00" fill="#000000">Return Address Register</text>
<polygon fill="#d8d8d8" stroke="transparent" points="802.5,-56 802.5,-82 861.5,-82 861.5,-56 802.5,-56"/>
<polygon fill="none" stroke="#000000" points="802.5,-56 802.5,-82 861.5,-82 861.5,-56 802.5,-56"/>
<text text-anchor="start" x="807.0989" y="-64.4" font-family="Helvetica,sans-Serif" font-size="14.00" fill="#000000">uleb128</text>
<polygon fill="#d8d8d8" stroke="transparent" points="861.5,-56 861.5,-82 1051.5,-82 1051.5,-56 861.5,-56"/>
<polygon fill="none" stroke="#000000" points="861.5,-56 861.5,-82 1051.5,-82 1051.5,-56 861.5,-56"/>
<text text-anchor="start" x="866.5" y="-64.4" font-family="Helvetica,sans-Serif" font-size="14.00" fill="#000000">Augmentation Data Length</text>
<polygon fill="#d8d8d8" stroke="transparent" points="802.5,-30 802.5,-56 861.5,-56 861.5,-30 802.5,-30"/>
<polygon fill="none" stroke="#000000" points="802.5,-30 802.5,-56 861.5,-56 861.5,-30 802.5,-30"/>
<text text-anchor="start" x="807.5" y="-38.4" font-family="Helvetica,sans-Serif" font-size="14.00" fill="#000000">enc</text>
<polygon fill="#d8d8d8" stroke="transparent" points="861.5,-30 861.5,-56 1051.5,-56 1051.5,-30 861.5,-30"/>
<polygon fill="none" stroke="#000000" points="861.5,-30 861.5,-56 1051.5,-56 1051.5,-30 861.5,-30"/>
<text text-anchor="start" x="866.5" y="-38.4" font-family="Helvetica,sans-Serif" font-size="14.00" fill="#000000">Augmentation Data</text>
<polygon fill="none" stroke="#000000" points="802.5,-4 802.5,-30 861.5,-30 861.5,-4 802.5,-4"/>
<text text-anchor="start" x="807.5" y="-12.4" font-family="Helvetica,sans-Serif" font-size="14.00" fill="#000000">char[]</text>
<polygon fill="none" stroke="#000000" points="861.5,-4 861.5,-30 1051.5,-30 1051.5,-4 861.5,-4"/>
<text text-anchor="start" x="866.2756" y="-12.4" font-family="Helvetica,sans-Serif" font-size="14.00" fill="#000000">Initial Call Frame Instructions</text>
</g>
<!-- n2&#45;&gt;n3 -->
<!-- n2&#45;&gt;n3 -->
<g id="edge6" class="edge">
<title>n2:e-&gt;n3:w</title>
<path fill="none" stroke="#000000" d="M750.5,-225C788.2581,-225 766.0684,-289.0605 792.5863,-301.0719"/>
<polygon fill="#000000" stroke="#000000" points="792.0157,-304.5264 802.5,-303 793.3521,-297.6552 792.0157,-304.5264"/>
</g>
</g>
</svg>