<?xml version="1.0" encoding="UTF-8" standalone="no"?><!DOCTYPE svg PUBLIC "-//W3C//DTD SVG 1.1//EN" "http://www.w3.org/Graphics/SVG/1.1/DTD/svg11.dtd"><!-- Generated by graphviz version 2.40.1 (20161225.0304)
 --><!-- Title: %0 Pages: 1 --><svg xmlns="http://www.w3.org/2000/svg" xmlns:xlink="http://www.w3.org/1999/xlink" width="1105pt" height="393pt" viewBox="0.00 0.00 1105.00 393.00">
<g id="graph0" class="graph" transform="scale(1 1) rotate(0) translate(4 389)">
<title>%0</title>
<polygon fill="#ffffff" stroke="transparent" points="-4,4 -4,-389 1101,-389 1101,4 -4,4"/>
<!-- n1 -->
<g id="node1" class="node">
<title>n1</title>
<polygon fill="#ffffff" stroke="transparent" points="306,-225 306,-381 469,-381 469,-225 306,-225"/>
<polygon fill="#909090" stroke="transparent" points="306.5,-355 306.5,-381 469.5,-381 469.5,-355 306.5,-355"/>
<polygon fill="none" stroke="#000000" points="306.5,-355 306.5,-381 469.5,-381 469.5,-355 306.5,-355"/>
<text text-anchor="start" x="374.0021" y="-363.4" font-family="Helvetica,sans-Serif" font-size="14.00" fill="#000000">FDE</text>
<polygon fill="none" stroke="#000000" points="306.5,-329 306.5,-355 365.5,-355 365.5,-329 306.5,-329"/>
<text text-anchor="start" x="311.5" y="-337.4" font-family="Helvetica,sans-Serif" font-size="14.00" fill="#000000">...</text>
<polygon fill="none" stroke="#000000" points="365.5,-329 365.5,-355 469.5,-355 469.5,-329 365.5,-329"/>
<text text-anchor="start" x="370.5" y="-337.4" font-family="Helvetica,sans-Serif" font-size="14.00" fill="#000000">...</text>
<polygon fill="none" stroke="#000000" points="306.5,-303 306.5,-329 365.5,-329 365.5,-303 306.5,-303"/>
<text text-anchor="start" x="311.0996" y="-311.4" font-family="Helvetica,sans-Serif" font-size="14.00" fill="#000000">uint32_t</text>
<polygon fill="none" stroke="#000000" points="365.5,-303 365.5,-329 469.5,-329 469.5,-303 365.5,-303"/>
<text text-anchor="start" x="370.4425" y="-311.4" font-family="Helvetica,sans-Serif" font-size="14.00" fill="#000000">CIE ptr (Offset)</text>
<polygon fill="#d8d8d8" stroke="transparent" points="306.5,-277 306.5,-303 469.5,-303 469.5,-277 306.5,-277"/>
<polygon fill="none" stroke="#000000" points="306.5,-277 306.5,-303 469.5,-303 469.5,-277 306.5,-277"/>
<text text-anchor="start" x="312.1487" y="-285.4" font-family="Helvetica,sans-Serif" font-size="14.00" fill="#000000">FDE Augmentation Data</text>
<polygon fill="#d8d8d8" stroke="transparent" points="306.5,-251 306.5,-277 365.5,-277 365.5,-251 306.5,-251"/>
<polygon fill="none" stroke="#000000" points="306.5,-251 306.5,-277 365.5,-277 365.5,-251 306.5,-251"/>
<text text-anchor="start" x="311.5" y="-259.4" font-family="Helvetica,sans-Serif" font-size="14.00" fill="#000000">uint8_t</text>
<polygon fill="#d8d8d8" stroke="transparent" points="365.5,-251 365.5,-277 469.5,-277 469.5,-251 365.5,-251"/>
<polygon fill="none" stroke="#000000" points="365.5,-251 365.5,-277 469.5,-277 469.5,-251 365.5,-251"/>
<text text-anchor="start" x="370.5" y="-259.4" font-family="Helvetica,sans-Serif" font-size="14.00" fill="#000000">LSDA ptr</text>
<polygon fill="none" stroke="#000000" points="306.5,-225 306.5,-251 365.5,-251 365.5,-225 306.5,-225"/>
<text text-anchor="start" x="311.5" y="-233.4" font-family="Helvetica,sans-Serif" font-size="14.00" fill="#000000">...</text>
<polygon fill="none" stroke="#000000" points="365.5,-225 365.5,-251 469.5,-251 469.5,-225 365.5,-225"/>
<text text-anchor="start" x="370.5" y="-233.4" font-family="Helvetica,sans-Serif" font-size="14.00" fill="#000000">...</text>
</g>
<!-- n0 -->
<g id="node2" class="node">
<title>n0</title>
<polygon fill="#ffffff" stroke="transparent" points="8,-147 8,-381 254,-381 254,-147 8,-147"/>
<polygon fill="#909090" stroke="transparent" points="8,-355 8,-381 254,-381 254,-355 8,-355"/>
<polygon fill="none" stroke="#000000" points="8,-355 8,-381 254,-381 254,-355 8,-355"/>
<text text-anchor="start" x="119.3331" y="-363.4" font-family="Helvetica,sans-Serif" font-size="14.00" fill="#000000">CIE</text>
<polygon fill="none" stroke="#000000" points="8,-329 8,-355 60,-355 60,-329 8,-329"/>
<text text-anchor="start" x="13" y="-337.4" font-family="Helvetica,sans-Serif" font-size="14.00" fill="#000000">...</text>
<polygon fill="none" stroke="#000000" points="60,-329 60,-355 254,-355 254,-329 60,-329"/>
<text text-anchor="start" x="65" y="-337.4" font-family="Helvetica,sans-Serif" font-size="14.00" fill="#000000">...</text>
<polygon fill="none" stroke="#000000" points="8,-303 8,-329 60,-329 60,-303 8,-303"/>
<text text-anchor="start" x="13" y="-311.4" font-family="Helvetica,sans-Serif" font-size="14.00" fill="#000000">char[]</text>
<polygon fill="none" stroke="#000000" points="60,-303 60,-329 254,-329 254,-303 60,-303"/>
<text text-anchor="start" x="64.9059" y="-311.4" font-family="Helvetica,sans-Serif" font-size="14.00" fill="#000000">Augmentation String ("zLPR")</text>
<polygon fill="#d8d8d8" stroke="transparent" points="8,-277 8,-303 254,-303 254,-277 8,-277"/>
<polygon fill="none" stroke="#000000" points="8,-277 8,-303 254,-303 254,-277 8,-277"/>
<text text-anchor="start" x="57.4797" y="-285.4" font-family="Helvetica,sans-Serif" font-size="14.00" fill="#000000">CIE Augmentation Data</text>
<polygon fill="#d8d8d8" stroke="transparent" points="8,-251 8,-277 60,-277 60,-251 8,-251"/>
<polygon fill="none" stroke="#000000" points="8,-251 8,-277 60,-277 60,-251 8,-251"/>
<text text-anchor="start" x="12.9909" y="-259.4" font-family="Helvetica,sans-Serif" font-size="14.00" fill="#000000">uint8_t</text>
<polygon fill="#d8d8d8" stroke="transparent" points="60,-251 60,-277 254,-277 254,-251 60,-251"/>
<polygon fill="none" stroke="#000000" points="60,-251 60,-277 254,-277 254,-251 60,-251"/>
<text text-anchor="start" x="65" y="-259.4" font-family="Helvetica,sans-Serif" font-size="14.00" fill="#000000">LSDA enc</text>
<polygon fill="#d8d8d8" stroke="transparent" points="8,-225 8,-251 60,-251 60,-225 8,-225"/>
<polygon fill="none" stroke="#000000" points="8,-225 8,-251 60,-251 60,-225 8,-225"/>
<text text-anchor="start" x="12.9909" y="-233.4" font-family="Helvetica,sans-Serif" font-size="14.00" fill="#000000">uint8_t</text>
<polygon fill="#d8d8d8" stroke="transparent" points="60,-225 60,-251 254,-251 254,-225 60,-225"/>
<polygon fill="none" stroke="#000000" points="60,-225 60,-251 254,-251 254,-225 60,-225"/>
<text text-anchor="start" x="65" y="-233.4" font-family="Helvetica,sans-Serif" font-size="14.00" fill="#000000">Personality Routine enc</text>
<polygon fill="#d8d8d8" stroke="transparent" points="8,-199 8,-225 60,-225 60,-199 8,-199"/>
<polygon fill="none" stroke="#000000" points="8,-199 8,-225 60,-225 60,-199 8,-199"/>
<text text-anchor="start" x="13" y="-207.4" font-family="Helvetica,sans-Serif" font-size="14.00" fill="#000000">enc</text>
<polygon fill="#d8d8d8" stroke="transparent" points="60,-199 60,-225 254,-225 254,-199 60,-199"/>
<polygon fill="none" stroke="#000000" points="60,-199 60,-225 254,-225 254,-199 60,-199"/>
<text text-anchor="start" x="65" y="-207.4" font-family="Helvetica,sans-Serif" font-size="14.00" fill="#000000">Personality Routine ptr</text>
<polygon fill="#d8d8d8" stroke="transparent" points="8,-173 8,-199 60,-199 60,-173 8,-173"/>
<polygon fill="none" stroke="#000000" points="8,-173 8,-199 60,-199 60,-173 8,-173"/>
<text text-anchor="start" x="12.9909" y="-181.4" font-family="Helvetica,sans-Serif" font-size="14.00" fill="#000000">uint8_t</text>
<polygon fill="#d8d8d8" stroke="transparent" points="60,-173 60,-199 254,-199 254,-173 60,-173"/>
<polygon fill="none" stroke="#000000" points="60,-173 60,-199 254,-199 254,-173 60,-173"/>
<text text-anchor="start" x="65" y="-181.4" font-family="Helvetica,sans-Serif" font-size="14.00" fill="#000000">FDE enc</text>
<polygon fill="none" stroke="#000000" points="8,-147 8,-173 60,-173 60,-147 8,-147"/>
<text text-anchor="start" x="13" y="-155.4" font-family="Helvetica,sans-Serif" font-size="14.00" fill="#000000">...</text>
<polygon fill="none" stroke="#000000" points="60,-147 60,-173 254,-173 254,-147 60,-147"/>
<text text-anchor="start" x="65" y="-155.4" font-family="Helvetica,sans-Serif" font-size="14.00" fill="#000000">...</text>
</g>
<!-- n1&#45;&gt;n0 -->
<g id="edge4" class="edge">
<title>n1:w-&gt;n0:e</title>
<path fill="none" stroke="#000000" d="M306.5,-316C277.6353,-316 284.3237,-356.1688 264.0695,-365.8971"/>
<polygon fill="#000000" stroke="#000000" points="263.0733,-362.5296 254,-368 264.5043,-369.3818 263.0733,-362.5296"/>
</g>
<!-- n2 -->
<g id="node3" class="node">
<title>n2</title>
<polygon fill="#ffffff" stroke="transparent" points="521,-147 521,-381 791,-381 791,-147 521,-147"/>
<polygon fill="#909090" stroke="transparent" points="521,-355 521,-381 791,-381 791,-355 521,-355"/>
<polygon fill="none" stroke="#000000" points="521,-355 521,-381 791,-381 791,-355 521,-355"/>
<text text-anchor="start" x="637.7188" y="-363.4" font-family="Helvetica,sans-Serif" font-size="14.00" fill="#000000">LSDA</text>
<polygon fill="none" stroke="#000000" points="521,-329 521,-355 580,-355 580,-329 521,-329"/>
<text text-anchor="start" x="526" y="-337.4" font-family="Helvetica,sans-Serif" font-size="14.00" fill="#000000">uint8_t</text>
<polygon fill="none" stroke="#000000" points="580,-329 580,-355 791,-355 791,-329 580,-329"/>
<text text-anchor="start" x="585" y="-337.4" font-family="Helvetica,sans-Serif" font-size="14.00" fill="#000000">Landing Pad Start (LPStart) enc</text>
<polygon fill="none" stroke="#000000" points="521,-303 521,-329 580,-329 580,-303 521,-303"/>
<text text-anchor="start" x="526" y="-311.4" font-family="Helvetica,sans-Serif" font-size="14.00" fill="#000000">enc</text>
<polygon fill="none" stroke="#000000" points="580,-303 580,-329 791,-329 791,-303 580,-303"/>
<text text-anchor="start" x="585" y="-311.4" font-family="Helvetica,sans-Serif" font-size="14.00" fill="#000000">LPStart ptr</text>
<polygon fill="none" stroke="#000000" points="521,-277 521,-303 580,-303 580,-277 521,-277"/>
<text text-anchor="start" x="526" y="-285.4" font-family="Helvetica,sans-Serif" font-size="14.00" fill="#000000">uint8_t</text>
<polygon fill="none" stroke="#000000" points="580,-277 580,-303 791,-303 791,-277 580,-277"/>
<text text-anchor="start" x="584.7588" y="-285.4" font-family="Helvetica,sans-Serif" font-size="14.00" fill="#000000">Types Table Base (TTBase) enc</text>
<polygon fill="none" stroke="#000000" points="521,-251 521,-277 580,-277 580,-251 521,-251"/>
<text text-anchor="start" x="526" y="-259.4" font-family="Helvetica,sans-Serif" font-size="14.00" fill="#000000">enc</text>
<polygon fill="none" stroke="#000000" points="580,-251 580,-277 791,-277 791,-251 580,-251"/>
<text text-anchor="start" x="585" y="-259.4" font-family="Helvetica,sans-Serif" font-size="14.00" fill="#000000">TT Base ptr</text>
<polygon fill="none" stroke="#000000" points="521,-225 521,-251 580,-251 580,-225 521,-225"/>
<text text-anchor="start" x="526" y="-233.4" font-family="Helvetica,sans-Serif" font-size="14.00" fill="#000000">uint8_t</text>
<polygon fill="none" stroke="#000000" points="580,-225 580,-251 791,-251 791,-225 580,-225"/>
<text text-anchor="start" x="585" y="-233.4" font-family="Helvetica,sans-Serif" font-size="14.00" fill="#000000">Call Site Offset (CSO) enc</text>
<polygon fill="none" stroke="#000000" points="521,-199 521,-225 580,-225 580,-199 521,-199"/>
<text text-anchor="start" x="525.5989" y="-207.4" font-family="Helvetica,sans-Serif" font-size="14.00" fill="#000000">uleb128</text>
<polygon fill="none" stroke="#000000" points="580,-199 580,-225 791,-225 791,-199 580,-199"/>
<text text-anchor="start" x="585" y="-207.4" font-family="Helvetica,sans-Serif" font-size="14.00" fill="#000000">Call Site Table length</text>
<polygon fill="none" stroke="#000000" points="521,-173 521,-199 580,-199 580,-173 521,-173"/>
<text text-anchor="start" x="526" y="-181.4" font-family="Helvetica,sans-Serif" font-size="14.00" fill="#000000">CSR[]</text>
<polygon fill="none" stroke="#000000" points="580,-173 580,-199 791,-199 791,-173 580,-173"/>
<text text-anchor="start" x="585" y="-181.4" font-family="Helvetica,sans-Serif" font-size="14.00" fill="#000000">Call Site Table</text>
<polygon fill="none" stroke="#000000" points="521,-147 521,-173 580,-173 580,-147 521,-147"/>
<text text-anchor="start" x="526" y="-155.4" font-family="Helvetica,sans-Serif" font-size="14.00" fill="#000000">AR[]</text>
<polygon fill="none" stroke="#000000" points="580,-147 580,-173 791,-173 791,-147 580,-147"/>
<text text-anchor="start" x="585" y="-155.4" font-family="Helvetica,sans-Serif" font-size="14.00" fill="#000000">Action Table</text>
</g>
<!-- n1&#45;&gt;n2 -->
<!-- n1&#45;&gt;n2 -->
<g id="edge5" class="edge">
<title>n1:e-&gt;n2:w</title>
<path fill="none" stroke="#000000" d="M469.5,-264C517.0494,-264 476.8624,-352.3848 510.703,-366.1949"/>
<polygon fill="#000000" stroke="#000000" points="510.5458,-369.7206 521,-368 511.7546,-362.8258 510.5458,-369.7206"/>
</g>
<!-- n0&#45;&gt;n1 -->
<!-- n3 -->
<g id="node4" class="node">
<title>n3</title>
<polygon fill="#ffffff" stroke="transparent" points="843,-108 843,-238 1089,-238 1089,-108 843,-108"/>
<polygon fill="#909090" stroke="transparent" points="843,-212 843,-238 1089,-238 1089,-212 843,-212"/>
<polygon fill="none" stroke="#000000" points="843,-212 843,-238 1089,-238 1089,-212 843,-212"/>
<text text-anchor="start" x="894.0617" y="-220.4" font-family="Helvetica,sans-Serif" font-size="14.00" fill="#000000">Call Site Record (CSR)</text>
<polygon fill="none" stroke="#000000" points="843,-186 843,-212 902,-212 902,-186 843,-186"/>
<text text-anchor="start" x="848" y="-194.4" font-family="Helvetica,sans-Serif" font-size="14.00" fill="#000000">ptr enc</text>
<polygon fill="none" stroke="#000000" points="902,-186 902,-212 1089,-212 1089,-186 902,-186"/>
<text text-anchor="start" x="907" y="-194.4" font-family="Helvetica,sans-Serif" font-size="14.00" fill="#000000">Region Start</text>
<polygon fill="none" stroke="#000000" points="843,-160 843,-186 902,-186 902,-160 843,-160"/>
<text text-anchor="start" x="847.5989" y="-168.4" font-family="Helvetica,sans-Serif" font-size="14.00" fill="#000000">uleb128</text>
<polygon fill="none" stroke="#000000" points="902,-160 902,-186 1089,-186 1089,-160 902,-160"/>
<text text-anchor="start" x="907" y="-168.4" font-family="Helvetica,sans-Serif" font-size="14.00" fill="#000000">Region Length</text>
<polygon fill="none" stroke="#000000" points="843,-134 843,-160 902,-160 902,-134 843,-134"/>
<text text-anchor="start" x="848" y="-142.4" font-family="Helvetica,sans-Serif" font-size="14.00" fill="#000000">ptr enc</text>
<polygon fill="none" stroke="#000000" points="902,-134 902,-160 1089,-160 1089,-134 902,-134"/>
<text text-anchor="start" x="907" y="-142.4" font-family="Helvetica,sans-Serif" font-size="14.00" fill="#000000">Region Landing Pad Offset</text>
<polygon fill="none" stroke="#000000" points="843,-108 843,-134 902,-134 902,-108 843,-108"/>
<text text-anchor="start" x="847.5989" y="-116.4" font-family="Helvetica,sans-Serif" font-size="14.00" fill="#000000">uleb128</text>
<polygon fill="none" stroke="#000000" points="902,-108 902,-134 1089,-134 1089,-108 902,-108"/>
<text text-anchor="start" x="906.8128" y="-116.4" font-family="Helvetica,sans-Serif" font-size="14.00" fill="#000000">Region Action Record Offset</text>
</g>
<!-- n2&#45;&gt;n3 -->
<g id="edge6" class="edge">
<title>n2:e-&gt;n3:w</title>
<path fill="none" stroke="#000000" stroke-dasharray="5,2" d="M791,-186C816.0521,-186 815.0343,-215.3286 833.1616,-223.1189"/>
<polygon fill="#000000" stroke="#000000" points="832.5206,-226.5597 843,-225 833.8352,-219.6843 832.5206,-226.5597"/>
</g>
<!-- n4 -->
<g id="node5" class="node">
<title>n4</title>
<polygon fill="#ffffff" stroke="transparent" points="864,-4 864,-82 1068,-82 1068,-4 864,-4"/>
<polygon fill="#909090" stroke="transparent" points="864,-56 864,-82 1068,-82 1068,-56 864,-56"/>
<polygon fill="none" stroke="#000000" points="864,-56 864,-82 1068,-82 1068,-56 864,-56"/>
<text text-anchor="start" x="905.7202" y="-64.4" font-family="Helvetica,sans-Serif" font-size="14.00" fill="#000000">Action Record (AR)</text>
<polygon fill="none" stroke="#000000" points="864,-30 864,-56 923,-56 923,-30 864,-30"/>
<text text-anchor="start" x="868.9902" y="-38.4" font-family="Helvetica,sans-Serif" font-size="14.00" fill="#000000">sleb128</text>
<polygon fill="none" stroke="#000000" points="923,-30 923,-56 1068,-56 1068,-30 923,-30"/>
<text text-anchor="start" x="927.831" y="-38.4" font-family="Helvetica,sans-Serif" font-size="14.00" fill="#000000">Type Filter Index (TX)</text>
<polygon fill="none" stroke="#000000" points="864,-4 864,-30 923,-30 923,-4 864,-4"/>
<text text-anchor="start" x="868.9902" y="-12.4" font-family="Helvetica,sans-Serif" font-size="14.00" fill="#000000">sleb128</text>
<polygon fill="none" stroke="#000000" points="923,-4 923,-30 1068,-30 1068,-4 923,-4"/>
<text text-anchor="start" x="928" y="-12.4" font-family="Helvetica,sans-Serif" font-size="14.00" fill="#000000">Offset to next AR</text>
</g>
<!-- n2&#45;&gt;n4 -->
<g id="edge7" class="edge">
<title>n2:e-&gt;n4:w</title>
<path fill="none" stroke="#000000" stroke-dasharray="5,2" d="M791,-160C839.0015,-160 816.2525,-82.0065 853.752,-70.4294"/>
<polygon fill="#000000" stroke="#000000" points="854.5794,-73.848 864,-69 853.6123,-66.9151 854.5794,-73.848"/>
</g>
<!-- n5 -->
<g id="node6" class="node">
<title>n5</title>
<polygon fill="#ffffff" stroke="transparent" points="867,-303 867,-381 1065,-381 1065,-303 867,-303"/>
<polygon fill="none" stroke="#000000" points="867,-355 867,-381 926,-381 926,-355 867,-355"/>
<text text-anchor="start" x="871.9902" y="-363.4" font-family="Helvetica,sans-Serif" font-size="14.00" fill="#000000">sleb128</text>
<polygon fill="none" stroke="#000000" points="926,-355 926,-381 1065,-381 1065,-355 926,-355"/>
<text text-anchor="start" x="930.9313" y="-363.4" font-family="Helvetica,sans-Serif" font-size="14.00" fill="#000000">Type Info Offset (T2)</text>
<polygon fill="none" stroke="#000000" points="867,-329 867,-355 926,-355 926,-329 867,-329"/>
<text text-anchor="start" x="871.9902" y="-337.4" font-family="Helvetica,sans-Serif" font-size="14.00" fill="#000000">sleb128</text>
<polygon fill="none" stroke="#000000" points="926,-329 926,-355 1065,-355 1065,-329 926,-329"/>
<text text-anchor="start" x="930.9313" y="-337.4" font-family="Helvetica,sans-Serif" font-size="14.00" fill="#000000">Type Info Offset (T1)</text>
<polygon fill="#909090" stroke="transparent" points="867,-303 867,-329 1065,-329 1065,-303 867,-303"/>
<polygon fill="none" stroke="#000000" points="867,-303 867,-329 1065,-329 1065,-303 867,-303"/>
<text text-anchor="start" x="927.4923" y="-311.4" font-family="Helvetica,sans-Serif" font-size="14.00" fill="#000000">Types Table</text>
</g>
<!-- n2&#45;&gt;n5 -->
<!-- n2&#45;&gt;n5 -->
<g id="edge8" class="edge">
<title>n2:e-&gt;n5:w</title>
<path fill="none" stroke="#000000" d="M791,-264C828.2504,-264 826.7469,-307.076 857.0338,-314.8162"/>
<polygon fill="#000000" stroke="#000000" points="856.6569,-318.296 867,-316 857.4827,-311.3448 856.6569,-318.296"/>
</g>
</g>
</svg>