<?xml version="1.0" encoding="UTF-8" standalone="no"?><!DOCTYPE svg PUBLIC "-//W3C//DTD SVG 1.1//EN" "http://www.w3.org/Graphics/SVG/1.1/DTD/svg11.dtd"><!-- Generated by graphviz version 2.40.1 (20161225.0304)
 --><!-- Title: %0 Pages: 1 --><svg xmlns="http://www.w3.org/2000/svg" xmlns:xlink="http://www.w3.org/1999/xlink" width="610pt" height="302pt" viewBox="0.00 0.00 610.00 302.00">
<g id="graph0" class="graph" transform="scale(1 1) rotate(0) translate(4 298)">
<title>%0</title>
<!-- n0 -->
<g id="node1" class="node">
<title>n0</title>
<polygon fill="#909090" stroke="transparent" points="8,-264 8,-290 99,-290 99,-264 8,-264"/>
<polygon fill="none" stroke="#000000" points="8,-264 8,-290 99,-290 99,-264 8,-264"/>
<text text-anchor="start" x="28.6059" y="-272.4" font-family="Helvetica,sans-Serif" font-size="14.00" fill="#000000">Position</text>
<polygon fill="#909090" stroke="transparent" points="99,-264 99,-290 294,-290 294,-264 99,-264"/>
<polygon fill="none" stroke="#000000" points="99,-264 99,-290 294,-290 294,-264 99,-264"/>
<text text-anchor="start" x="168.4909" y="-272.4" font-family="Helvetica,sans-Serif" font-size="14.00" fill="#000000">Contents</text>
<polygon fill="#909090" stroke="transparent" points="294,-264 294,-290 395,-290 395,-264 294,-264"/>
<polygon fill="none" stroke="#000000" points="294,-264 294,-290 395,-290 395,-264 294,-264"/>
<text text-anchor="start" x="298.6031" y="-272.4" font-family="Helvetica,sans-Serif" font-size="14.00" fill="#000000">Register Value</text>
<polygon fill="#909090" stroke="transparent" points="395,-264 395,-290 530,-290 530,-264 395,-264"/>
<polygon fill="none" stroke="#000000" points="395,-264 395,-290 530,-290 530,-264 395,-264"/>
<text text-anchor="start" x="412.3275" y="-272.4" font-family="Helvetica,sans-Serif" font-size="14.00" fill="#000000">Register Pointer</text>
<polygon fill="#909090" stroke="transparent" points="530,-264 530,-290 594,-290 594,-264 530,-264"/>
<polygon fill="none" stroke="#000000" points="530,-264 530,-290 594,-290 594,-264 530,-264"/>
<text text-anchor="start" x="541.7805" y="-272.4" font-family="Helvetica,sans-Serif" font-size="14.00" fill="#000000">Frame</text>
<polygon fill="#ffff60" stroke="transparent" points="8,-238 8,-264 99,-264 99,-238 8,-238"/>
<polygon fill="none" stroke="#000000" points="8,-238 8,-264 99,-264 99,-238 8,-238"/>
<text text-anchor="start" x="12.8517" y="-246.4" font-family="Helvetica,sans-Serif" font-size="14.00" fill="#000000">8n+16(%rbp)</text>
<polygon fill="#ffff60" stroke="transparent" points="99,-238 99,-264 294,-264 294,-238 99,-238"/>
<polygon fill="none" stroke="#000000" points="99,-238 99,-264 294,-264 294,-238 99,-238"/>
<text text-anchor="start" x="103.5365" y="-246.4" font-family="Helvetica,sans-Serif" font-size="14.00" fill="#000000">memory argument eightbyte n</text>
<polygon fill="#ffff60" stroke="transparent" points="294,-238 294,-264 395,-264 395,-238 294,-238"/>
<polygon fill="none" stroke="#000000" points="294,-238 294,-264 395,-264 395,-238 294,-238"/>
<text text-anchor="start" x="342.5547" y="-246.4" font-family="Helvetica,sans-Serif" font-size="14.00" fill="#000000"> </text>
<polygon fill="#ffff60" stroke="transparent" points="395,-238 395,-264 530,-264 530,-238 395,-238"/>
<polygon fill="none" stroke="#000000" points="395,-238 395,-264 530,-264 530,-238 395,-238"/>
<text text-anchor="start" x="460.5547" y="-246.4" font-family="Helvetica,sans-Serif" font-size="14.00" fill="#000000"> </text>
<polygon fill="#ffff60" stroke="transparent" points="530,-186 530,-264 594,-264 594,-186 530,-186"/>
<polygon fill="none" stroke="#000000" points="530,-186 530,-264 594,-264 594,-186 530,-186"/>
<text text-anchor="start" x="534.7742" y="-220.8" font-family="Helvetica,sans-Serif" font-size="14.00" fill="#000000">Previous</text>
<polygon fill="#ffff60" stroke="transparent" points="8,-212 8,-238 99,-238 99,-212 8,-212"/>
<polygon fill="none" stroke="#000000" points="8,-212 8,-238 99,-238 99,-212 8,-212"/>
<polygon fill="#ffff60" stroke="transparent" points="99,-212 99,-238 294,-238 294,-212 99,-212"/>
<polygon fill="none" stroke="#000000" points="99,-212 99,-238 294,-238 294,-212 99,-212"/>
<text text-anchor="start" x="190.6641" y="-220.4" font-family="Helvetica,sans-Serif" font-size="14.00" fill="#000000">...</text>
<polygon fill="#ffff60" stroke="transparent" points="294,-212 294,-238 395,-238 395,-212 294,-212"/>
<polygon fill="none" stroke="#000000" points="294,-212 294,-238 395,-238 395,-212 294,-212"/>
<text text-anchor="start" x="342.5547" y="-220.4" font-family="Helvetica,sans-Serif" font-size="14.00" fill="#000000"> </text>
<polygon fill="#ffff60" stroke="transparent" points="395,-212 395,-238 530,-238 530,-212 395,-212"/>
<polygon fill="none" stroke="#000000" points="395,-212 395,-238 530,-238 530,-212 395,-212"/>
<text text-anchor="start" x="460.5547" y="-220.4" font-family="Helvetica,sans-Serif" font-size="14.00" fill="#000000"> </text>
<polygon fill="#ffff60" stroke="transparent" points="8,-186 8,-212 99,-212 99,-186 8,-186"/>
<polygon fill="none" stroke="#000000" points="8,-186 8,-212 99,-212 99,-186 8,-186"/>
<text text-anchor="start" x="36.4432" y="-194.4" font-family="Helvetica,sans-Serif" font-size="14.00" fill="#000000">16(%rbp)</text>
<polygon fill="#ffff60" stroke="transparent" points="99,-186 99,-212 294,-212 294,-186 99,-186"/>
<polygon fill="none" stroke="#000000" points="99,-186 99,-212 294,-212 294,-186 99,-186"/>
<text text-anchor="start" x="103.5365" y="-194.4" font-family="Helvetica,sans-Serif" font-size="14.00" fill="#000000">memory argument eightbyte 0</text>
<polygon fill="#ffff60" stroke="transparent" points="294,-186 294,-212 395,-212 395,-186 294,-186"/>
<polygon fill="none" stroke="#000000" points="294,-186 294,-212 395,-212 395,-186 294,-186"/>
<text text-anchor="start" x="342.5547" y="-194.4" font-family="Helvetica,sans-Serif" font-size="14.00" fill="#000000"> </text>
<polygon fill="#ffff60" stroke="transparent" points="395,-186 395,-212 530,-212 530,-186 395,-186"/>
<polygon fill="none" stroke="#000000" points="395,-186 395,-212 530,-212 530,-186 395,-186"/>
<text text-anchor="start" x="399.6939" y="-194.4" font-family="Helvetica,sans-Serif" font-size="14.00" fill="#000000">RSP[N-1]=CFA[N-1]</text>
<polygon fill="#ffc760" stroke="transparent" points="8,-160 8,-186 99,-186 99,-160 8,-160"/>
<polygon fill="none" stroke="#000000" points="8,-160 8,-186 99,-186 99,-160 8,-160"/>
<text text-anchor="start" x="44.2258" y="-168.4" font-family="Helvetica,sans-Serif" font-size="14.00" fill="#000000">8(%rbp)</text>
<polygon fill="#ffc760" stroke="transparent" points="99,-160 99,-186 294,-186 294,-160 99,-160"/>
<polygon fill="none" stroke="#000000" points="99,-160 99,-186 294,-186 294,-160 99,-160"/>
<text text-anchor="start" x="151.3794" y="-168.4" font-family="Helvetica,sans-Serif" font-size="14.00" fill="#000000">return address</text>
<polygon fill="#ffc760" stroke="transparent" points="294,-160 294,-186 395,-186 395,-160 294,-160"/>
<polygon fill="none" stroke="#000000" points="294,-160 294,-186 395,-186 395,-160 294,-160"/>
<text text-anchor="start" x="317.6676" y="-168.4" font-family="Helvetica,sans-Serif" font-size="14.00" fill="#000000">RIP[N-1]</text>
<polygon fill="#ffc760" stroke="transparent" points="395,-160 395,-186 530,-186 530,-160 395,-160"/>
<polygon fill="none" stroke="#000000" points="395,-160 395,-186 530,-186 530,-160 395,-160"/>
<text text-anchor="start" x="460.5547" y="-168.4" font-family="Helvetica,sans-Serif" font-size="14.00" fill="#000000"> </text>
<polygon fill="#ffc760" stroke="transparent" points="530,-30 530,-186 594,-186 594,-30 530,-30"/>
<polygon fill="none" stroke="#000000" points="530,-30 530,-186 594,-186 594,-30 530,-30"/>
<text text-anchor="start" x="538.6669" y="-103.8" font-family="Helvetica,sans-Serif" font-size="14.00" fill="#000000">Current</text>
<polygon fill="#ffc760" stroke="transparent" points="8,-134 8,-160 99,-160 99,-134 8,-134"/>
<polygon fill="none" stroke="#000000" points="8,-134 8,-160 99,-160 99,-134 8,-134"/>
<text text-anchor="start" x="44.2258" y="-142.4" font-family="Helvetica,sans-Serif" font-size="14.00" fill="#000000">0(%rbp)</text>
<polygon fill="#ffc760" stroke="transparent" points="99,-134 99,-160 294,-160 294,-134 99,-134"/>
<polygon fill="none" stroke="#000000" points="99,-134 99,-160 294,-160 294,-134 99,-134"/>
<text text-anchor="start" x="133.0982" y="-142.4" font-family="Helvetica,sans-Serif" font-size="14.00" fill="#000000">previous %rbp value</text>
<polygon fill="#ffc760" stroke="transparent" points="294,-134 294,-160 395,-160 395,-134 294,-134"/>
<polygon fill="none" stroke="#000000" points="294,-134 294,-160 395,-160 395,-134 294,-134"/>
<text text-anchor="start" x="314.9446" y="-142.4" font-family="Helvetica,sans-Serif" font-size="14.00" fill="#000000">RBP[N-1]</text>
<polygon fill="#ffc760" stroke="transparent" points="395,-134 395,-160 530,-160 530,-134 395,-134"/>
<polygon fill="none" stroke="#000000" points="395,-134 395,-160 530,-160 530,-134 395,-134"/>
<text text-anchor="start" x="439.1662" y="-142.4" font-family="Helvetica,sans-Serif" font-size="14.00" fill="#000000">RBP[N]</text>
<polygon fill="#ffc760" stroke="transparent" points="8,-108 8,-134 99,-134 99,-108 8,-108"/>
<polygon fill="none" stroke="#000000" points="8,-108 8,-134 99,-134 99,-108 8,-108"/>
<text text-anchor="start" x="39.5652" y="-116.4" font-family="Helvetica,sans-Serif" font-size="14.00" fill="#000000">-8(%rbp)</text>
<polygon fill="#ffc760" stroke="transparent" points="99,-108 99,-134 294,-134 294,-108 99,-108"/>
<polygon fill="none" stroke="#000000" points="99,-108 99,-134 294,-134 294,-108 99,-108"/>
<text text-anchor="start" x="161.1003" y="-116.4" font-family="Helvetica,sans-Serif" font-size="14.00" fill="#000000">unspecified</text>
<polygon fill="#ffc760" stroke="transparent" points="294,-108 294,-134 395,-134 395,-108 294,-108"/>
<polygon fill="none" stroke="#000000" points="294,-108 294,-134 395,-134 395,-108 294,-108"/>
<text text-anchor="start" x="342.5547" y="-116.4" font-family="Helvetica,sans-Serif" font-size="14.00" fill="#000000"> </text>
<polygon fill="#ffc760" stroke="transparent" points="395,-108 395,-134 530,-134 530,-108 395,-108"/>
<polygon fill="none" stroke="#000000" points="395,-108 395,-134 530,-134 530,-108 395,-108"/>
<text text-anchor="start" x="460.5547" y="-116.4" font-family="Helvetica,sans-Serif" font-size="14.00" fill="#000000"> </text>
<polygon fill="#ffc760" stroke="transparent" points="8,-82 8,-108 99,-108 99,-82 8,-82"/>
<polygon fill="none" stroke="#000000" points="8,-82 8,-108 99,-108 99,-82 8,-82"/>
<text text-anchor="start" x="90.1094" y="-90.4" font-family="Helvetica,sans-Serif" font-size="14.00" fill="#000000"> </text>
<polygon fill="#ffc760" stroke="transparent" points="99,-82 99,-108 294,-108 294,-82 99,-82"/>
<polygon fill="none" stroke="#000000" points="99,-82 99,-108 294,-108 294,-82 99,-82"/>
<text text-anchor="start" x="190.6641" y="-90.4" font-family="Helvetica,sans-Serif" font-size="14.00" fill="#000000">...</text>
<polygon fill="#ffc760" stroke="transparent" points="294,-82 294,-108 395,-108 395,-82 294,-82"/>
<polygon fill="none" stroke="#000000" points="294,-82 294,-108 395,-108 395,-82 294,-82"/>
<text text-anchor="start" x="342.5547" y="-90.4" font-family="Helvetica,sans-Serif" font-size="14.00" fill="#000000"> </text>
<polygon fill="#ffc760" stroke="transparent" points="395,-82 395,-108 530,-108 530,-82 395,-82"/>
<polygon fill="none" stroke="#000000" points="395,-82 395,-108 530,-108 530,-82 395,-82"/>
<text text-anchor="start" x="460.5547" y="-90.4" font-family="Helvetica,sans-Serif" font-size="14.00" fill="#000000"> </text>
<polygon fill="#ffc760" stroke="transparent" points="8,-56 8,-82 99,-82 99,-56 8,-56"/>
<polygon fill="none" stroke="#000000" points="8,-56 8,-82 99,-82 99,-56 8,-56"/>
<text text-anchor="start" x="45.0084" y="-64.4" font-family="Helvetica,sans-Serif" font-size="14.00" fill="#000000">0(%rsp)</text>
<polygon fill="#ffc760" stroke="transparent" points="99,-56 99,-82 294,-82 294,-56 99,-56"/>
<polygon fill="none" stroke="#000000" points="99,-56 99,-82 294,-82 294,-56 99,-56"/>
<text text-anchor="start" x="157.608" y="-64.4" font-family="Helvetica,sans-Serif" font-size="14.00" fill="#000000">variable size</text>
<polygon fill="#ffc760" stroke="transparent" points="294,-56 294,-82 395,-82 395,-56 294,-56"/>
<polygon fill="none" stroke="#000000" points="294,-56 294,-82 395,-82 395,-56 294,-56"/>
<text text-anchor="start" x="342.5547" y="-64.4" font-family="Helvetica,sans-Serif" font-size="14.00" fill="#000000"> </text>
<polygon fill="#ffc760" stroke="transparent" points="395,-56 395,-82 530,-82 530,-56 395,-56"/>
<polygon fill="none" stroke="#000000" points="395,-56 395,-82 530,-82 530,-56 395,-56"/>
<text text-anchor="start" x="439.1662" y="-64.4" font-family="Helvetica,sans-Serif" font-size="14.00" fill="#000000">RSP[N]</text>
<polygon fill="#ffc760" stroke="transparent" points="8,-30 8,-56 99,-56 99,-30 8,-30"/>
<polygon fill="none" stroke="#000000" points="8,-30 8,-56 99,-56 99,-30 8,-30"/>
<text text-anchor="start" x="90.1094" y="-38.4" font-family="Helvetica,sans-Serif" font-size="14.00" fill="#000000"> </text>
<polygon fill="#ffc760" stroke="transparent" points="99,-30 99,-56 294,-56 294,-30 99,-30"/>
<polygon fill="none" stroke="#000000" points="99,-30 99,-56 294,-56 294,-30 99,-30"/>
<text text-anchor="start" x="152.1634" y="-38.4" font-family="Helvetica,sans-Serif" font-size="14.00" fill="#000000">local variables</text>
<polygon fill="#ffc760" stroke="transparent" points="294,-30 294,-56 395,-56 395,-30 294,-30"/>
<polygon fill="none" stroke="#000000" points="294,-30 294,-56 395,-56 395,-30 294,-30"/>
<text text-anchor="start" x="342.5547" y="-38.4" font-family="Helvetica,sans-Serif" font-size="14.00" fill="#000000"> </text>
<polygon fill="#ffc760" stroke="transparent" points="395,-30 395,-56 530,-56 530,-30 395,-30"/>
<polygon fill="none" stroke="#000000" points="395,-30 395,-56 530,-56 530,-30 395,-30"/>
<text text-anchor="start" x="460.5547" y="-38.4" font-family="Helvetica,sans-Serif" font-size="14.00" fill="#000000"> </text>
<polygon fill="#ff6060" stroke="transparent" points="8,-4 8,-30 99,-30 99,-4 8,-4"/>
<polygon fill="none" stroke="#000000" points="8,-4 8,-30 99,-30 99,-4 8,-4"/>
<text text-anchor="start" x="24.7826" y="-12.4" font-family="Helvetica,sans-Serif" font-size="14.00" fill="#000000">-128(%rsp)</text>
<polygon fill="#ff6060" stroke="transparent" points="99,-4 99,-30 294,-30 294,-4 99,-4"/>
<polygon fill="none" stroke="#000000" points="99,-4 99,-30 294,-30 294,-4 99,-4"/>
<text text-anchor="start" x="169.2679" y="-12.4" font-family="Helvetica,sans-Serif" font-size="14.00" fill="#000000">red zone</text>
<polygon fill="#ff6060" stroke="transparent" points="294,-4 294,-30 395,-30 395,-4 294,-4"/>
<polygon fill="none" stroke="#000000" points="294,-4 294,-30 395,-30 395,-4 294,-4"/>
<text text-anchor="start" x="342.5547" y="-12.4" font-family="Helvetica,sans-Serif" font-size="14.00" fill="#000000"> </text>
<polygon fill="#ff6060" stroke="transparent" points="395,-4 395,-30 530,-30 530,-4 395,-4"/>
<polygon fill="none" stroke="#000000" points="395,-4 395,-30 530,-30 530,-4 395,-4"/>
<text text-anchor="start" x="460.5547" y="-12.4" font-family="Helvetica,sans-Serif" font-size="14.00" fill="#000000"> </text>
<polygon fill="#ff6060" stroke="transparent" points="530,-4 530,-30 594,-30 594,-4 530,-4"/>
<polygon fill="none" stroke="#000000" points="530,-4 530,-30 594,-30 594,-4 530,-4"/>
<text text-anchor="start" x="544.4965" y="-12.4" font-family="Helvetica,sans-Serif" font-size="14.00" fill="#000000">Other</text>
</g>
</g>
</svg>